<svg width="1024" height="500" viewBox="0 0 1024 500" xmlns="http://www.w3.org/2000/svg" font-family="'Apple SD Gothic Neo','Malgun Gothic','Noto Sans KR',sans-serif">
<rect width="1024" height="500" fill="#FFF7EC"/>
<circle cx="805" cy="250" r="195" fill="#FBEAD0"/>
<circle cx="805" cy="250" r="152" fill="none" stroke="#F0D7AE" stroke-width="18"/>
<circle cx="805" cy="250" r="152" fill="none" stroke="#E89B3B" stroke-width="18" stroke-linecap="round" stroke-dasharray="690 955" transform="rotate(-90 805 250)"/>
<rect x="799" y="86" width="12" height="20" rx="6" fill="#C9842B"/>
<rect x="949" y="244" width="20" height="12" rx="6" fill="#C9842B"/>
<rect x="799" y="394" width="12" height="20" rx="6" fill="#C9842B"/>
<rect x="641" y="244" width="20" height="12" rx="6" fill="#C9842B"/>
<g>
<circle cx="765" cy="192" r="23" fill="#F7CE8E"/>
<circle cx="845" cy="192" r="23" fill="#F7CE8E"/>
<circle cx="765" cy="192" r="11" fill="#F4A6A0"/>
<circle cx="845" cy="192" r="11" fill="#F4A6A0"/>
<circle cx="805" cy="268" r="88" fill="#F7CE8E"/>
<ellipse cx="805" cy="290" rx="50" ry="44" fill="#FFF8EE"/>
<circle cx="765" cy="272" r="13" fill="#F4A6A0"/>
<circle cx="845" cy="272" r="13" fill="#F4A6A0"/>
<circle cx="782" cy="250" r="9.5" fill="#3A2E1F"/>
<circle cx="828" cy="250" r="9.5" fill="#3A2E1F"/>
<circle cx="785" cy="247" r="3" fill="#FFFFFF"/>
<circle cx="831" cy="247" r="3" fill="#FFFFFF"/>
<path d="M793 270 Q805 282 817 270" fill="none" stroke="#3A2E1F" stroke-width="4.5" stroke-linecap="round"/>
</g>
<text x="78" y="196" font-size="58" font-weight="700" fill="#3A2E1F">캐릭터 타이머 위젯</text>
<text x="80" y="250" font-size="27" fill="#7A5C34">홈 화면에서 함께하는 집중 타이머</text>
<g>
<rect x="80" y="292" width="168" height="48" rx="24" fill="#E89B3B"/>
<text x="164" y="323" font-size="22" font-weight="500" fill="#FFFFFF" text-anchor="middle">위젯 타이머</text>
<rect x="262" y="292" width="168" height="48" rx="24" fill="#FFFFFF" stroke="#E89B3B" stroke-width="2"/>
<text x="346" y="323" font-size="22" font-weight="500" fill="#B5701A" text-anchor="middle">캐릭터 테마</text>
</g>
</svg>
